<?xml version="1.0" encoding="UTF-8" standalone="no"?>
<!DOCTYPE svg PUBLIC "-//W3C//DTD SVG 1.1//EN"
 "http://www.w3.org/Graphics/SVG/1.1/DTD/svg11.dtd">
<!-- Generated by graphviz version 2.40.1 (20161225.0304)
 -->
<!-- Title: dependencies Pages: 1 -->
<svg width="3658pt" height="352pt"
 viewBox="0.00 0.00 3658.00 352.00" xmlns="http://www.w3.org/2000/svg" xmlns:xlink="http://www.w3.org/1999/xlink">
<g id="graph0" class="graph" transform="scale(1 1) rotate(0) translate(4 348)">
<title>dependencies</title>
<polygon fill="#ffffff" stroke="transparent" points="-4,4 -4,-348 3654,-348 3654,4 -4,4"/>
<text text-anchor="start" x="1804.0091" y="-42.4" font-family="sans-serif" font-weight="bold" font-size="14.00" fill="#000000">Legend</text>
<polygon fill="#ffffb3" stroke="transparent" points="1591,-10 1591,-30 1611,-30 1611,-10 1591,-10"/>
<text text-anchor="start" x="1614.629" y="-15.4" font-family="sans-serif" font-size="14.00" fill="#000000"> &#160;Declarations</text>
<polygon fill="#8dd3c7" stroke="transparent" points="1704,-10 1704,-30 1724,-30 1724,-10 1704,-10"/>
<text text-anchor="start" x="1727.7251" y="-15.4" font-family="sans-serif" font-size="14.00" fill="#000000"> &#160;Module</text>
<polygon fill="#80b1d3" stroke="transparent" points="1790,-10 1790,-30 1810,-30 1810,-10 1790,-10"/>
<text text-anchor="start" x="1813.7812" y="-15.4" font-family="sans-serif" font-size="14.00" fill="#000000"> &#160;Bootstrap</text>
<polygon fill="#fdb462" stroke="transparent" points="1887,-10 1887,-30 1907,-30 1907,-10 1887,-10"/>
<text text-anchor="start" x="1910.6732" y="-15.4" font-family="sans-serif" font-size="14.00" fill="#000000"> &#160;Providers</text>
<polygon fill="#fb8072" stroke="transparent" points="1983,-10 1983,-30 2003,-30 2003,-10 1983,-10"/>
<text text-anchor="start" x="2006.7258" y="-15.4" font-family="sans-serif" font-size="14.00" fill="#000000"> &#160;Exports</text>
<g id="clust1" class="cluster">
<title>cluster_AdminModule</title>
<polygon fill="none" stroke="#000000" stroke-dasharray="1,5" points="8,-70 8,-198 222,-198 222,-70 8,-70"/>
</g>
<g id="clust3" class="cluster">
<title>cluster_AdminModule_imports</title>
<polygon fill="none" stroke="#000000" points="16,-78 16,-130 214,-130 214,-78 16,-78"/>
</g>
<g id="clust7" class="cluster">
<title>cluster_AppModule</title>
<polygon fill="none" stroke="#000000" stroke-dasharray="1,5" points="856,-70 856,-336 2118,-336 2118,-70 856,-70"/>
</g>
<g id="clust8" class="cluster">
<title>cluster_AppModule_declarations</title>
<polygon fill="none" stroke="#000000" points="1406,-146 1406,-198 2110,-198 2110,-146 1406,-146"/>
</g>
<g id="clust14" class="cluster">
<title>cluster_AppModule_imports</title>
<polygon fill="none" stroke="#000000" points="864,-78 864,-198 1398,-198 1398,-78 864,-78"/>
</g>
<g id="clust16" class="cluster">
<title>cluster_AppModule_bootstrap</title>
<polygon fill="none" stroke="#000000" points="1345,-276 1345,-328 1469,-328 1469,-276 1345,-276"/>
</g>
<g id="clust18" class="cluster">
<title>cluster_AuthModule</title>
<polygon fill="none" stroke="#000000" stroke-dasharray="1,5" points="230,-146 230,-198 334,-198 334,-146 230,-146"/>
</g>
<g id="clust24" class="cluster">
<title>cluster_CheckoutModule</title>
<polygon fill="none" stroke="#000000" stroke-dasharray="1,5" points="342,-146 342,-198 472,-198 472,-146 342,-146"/>
</g>
<g id="clust36" class="cluster">
<title>cluster_LayoutModule</title>
<polygon fill="none" stroke="#000000" stroke-dasharray="1,5" points="2126,-70 2126,-138 3642,-138 3642,-70 2126,-70"/>
</g>
<g id="clust37" class="cluster">
<title>cluster_LayoutModule_declarations</title>
<polygon fill="none" stroke="#000000" points="2988,-78 2988,-130 3634,-130 3634,-78 2988,-78"/>
</g>
<g id="clust42" class="cluster">
<title>cluster_LayoutModule_imports</title>
<polygon fill="none" stroke="#000000" points="2624,-78 2624,-130 2980,-130 2980,-78 2624,-78"/>
</g>
<g id="clust43" class="cluster">
<title>cluster_LayoutModule_exports</title>
<polygon fill="none" stroke="#000000" points="2134,-78 2134,-130 2616,-130 2616,-78 2134,-78"/>
</g>
<g id="clust46" class="cluster">
<title>cluster_MerchantModule</title>
<polygon fill="none" stroke="#000000" stroke-dasharray="1,5" points="480,-146 480,-198 610,-198 610,-146 480,-146"/>
</g>
<g id="clust52" class="cluster">
<title>cluster_ProductModule</title>
<polygon fill="none" stroke="#000000" stroke-dasharray="1,5" points="618,-146 618,-198 738,-198 738,-146 618,-146"/>
</g>
<g id="clust58" class="cluster">
<title>cluster_UserModule</title>
<polygon fill="none" stroke="#000000" stroke-dasharray="1,5" points="746,-146 746,-198 848,-198 848,-146 746,-146"/>
</g>
<!-- RouterModule.forChild(args) -->
<g id="node1" class="node">
<title>RouterModule.forChild(args)</title>
<polygon fill="#8dd3c7" stroke="#000000" points="205.7323,-122 202.7323,-126 181.7323,-126 178.7323,-122 24.2677,-122 24.2677,-86 205.7323,-86 205.7323,-122"/>
<text text-anchor="middle" x="115" y="-99.8" font-family="Times,serif" font-size="14.00" fill="#000000">RouterModule.forChild(args)</text>
</g>
<!-- AdminModule -->
<g id="node2" class="node">
<title>AdminModule</title>
<polygon fill="#8dd3c7" stroke="#000000" points="164.4386,-190 161.4386,-194 140.4386,-194 137.4386,-190 65.5614,-190 65.5614,-154 164.4386,-154 164.4386,-190"/>
<text text-anchor="middle" x="115" y="-167.8" font-family="Times,serif" font-size="14.00" fill="#000000">AdminModule</text>
</g>
<!-- RouterModule.forChild(args)&#45;&gt;AdminModule -->
<g id="edge1" class="edge">
<title>RouterModule.forChild(args)&#45;&gt;AdminModule</title>
<path fill="none" stroke="#000000" d="M115,-122.2228C115,-122.2228 115,-143.7269 115,-143.7269"/>
<polygon fill="#000000" stroke="#000000" points="111.5001,-143.7269 115,-153.7269 118.5001,-143.727 111.5001,-143.7269"/>
</g>
<!-- AuthModule -->
<g id="node15" class="node">
<title>AuthModule</title>
<polygon fill="#8dd3c7" stroke="#000000" points="325.5482,-190 322.5482,-194 301.5482,-194 298.5482,-190 238.4518,-190 238.4518,-154 325.5482,-154 325.5482,-190"/>
<text text-anchor="middle" x="282" y="-167.8" font-family="Times,serif" font-size="14.00" fill="#000000">AuthModule</text>
</g>
<!-- RouterModule.forChild(args)&#45;&gt;AuthModule -->
<g id="edge13" class="edge">
<title>RouterModule.forChild(args)&#45;&gt;AuthModule</title>
<path fill="none" stroke="#000000" d="M184.9175,-122.2228C184.9175,-142.3652 184.9175,-172 184.9175,-172 184.9175,-172 228.2868,-172 228.2868,-172"/>
<polygon fill="#000000" stroke="#000000" points="228.2868,-175.5001 238.2868,-172 228.2867,-168.5001 228.2868,-175.5001"/>
</g>
<!-- CheckoutModule -->
<g id="node16" class="node">
<title>CheckoutModule</title>
<polygon fill="#8dd3c7" stroke="#000000" points="463.7064,-190 460.7064,-194 439.7064,-194 436.7064,-190 350.2936,-190 350.2936,-154 463.7064,-154 463.7064,-190"/>
<text text-anchor="middle" x="407" y="-167.8" font-family="Times,serif" font-size="14.00" fill="#000000">CheckoutModule</text>
</g>
<!-- RouterModule.forChild(args)&#45;&gt;CheckoutModule -->
<g id="edge14" class="edge">
<title>RouterModule.forChild(args)&#45;&gt;CheckoutModule</title>
<path fill="none" stroke="#000000" d="M205.79,-115C291.5073,-115 407,-115 407,-115 407,-115 407,-143.9648 407,-143.9648"/>
<polygon fill="#000000" stroke="#000000" points="403.5001,-143.9648 407,-153.9648 410.5001,-143.9649 403.5001,-143.9648"/>
</g>
<!-- MerchantModule -->
<g id="node26" class="node">
<title>MerchantModule</title>
<polygon fill="#8dd3c7" stroke="#000000" points="601.6896,-190 598.6896,-194 577.6896,-194 574.6896,-190 488.3104,-190 488.3104,-154 601.6896,-154 601.6896,-190"/>
<text text-anchor="middle" x="545" y="-167.8" font-family="Times,serif" font-size="14.00" fill="#000000">MerchantModule</text>
</g>
<!-- RouterModule.forChild(args)&#45;&gt;MerchantModule -->
<g id="edge25" class="edge">
<title>RouterModule.forChild(args)&#45;&gt;MerchantModule</title>
<path fill="none" stroke="#000000" d="M205.6665,-108C331.8236,-108 545,-108 545,-108 545,-108 545,-143.8314 545,-143.8314"/>
<polygon fill="#000000" stroke="#000000" points="541.5001,-143.8313 545,-153.8314 548.5001,-143.8314 541.5001,-143.8313"/>
</g>
<!-- ProductModule -->
<g id="node27" class="node">
<title>ProductModule</title>
<polygon fill="#8dd3c7" stroke="#000000" points="729.5982,-190 726.5982,-194 705.5982,-194 702.5982,-190 626.4018,-190 626.4018,-154 729.5982,-154 729.5982,-190"/>
<text text-anchor="middle" x="678" y="-167.8" font-family="Times,serif" font-size="14.00" fill="#000000">ProductModule</text>
</g>
<!-- RouterModule.forChild(args)&#45;&gt;ProductModule -->
<g id="edge26" class="edge">
<title>RouterModule.forChild(args)&#45;&gt;ProductModule</title>
<path fill="none" stroke="#000000" d="M205.7683,-101C365.0128,-101 678,-101 678,-101 678,-101 678,-143.7157 678,-143.7157"/>
<polygon fill="#000000" stroke="#000000" points="674.5001,-143.7157 678,-153.7157 681.5001,-143.7158 674.5001,-143.7157"/>
</g>
<!-- UserModule -->
<g id="node28" class="node">
<title>UserModule</title>
<polygon fill="#8dd3c7" stroke="#000000" points="839.9762,-190 836.9762,-194 815.9762,-194 812.9762,-190 754.0238,-190 754.0238,-154 839.9762,-154 839.9762,-190"/>
<text text-anchor="middle" x="797" y="-167.8" font-family="Times,serif" font-size="14.00" fill="#000000">UserModule</text>
</g>
<!-- RouterModule.forChild(args)&#45;&gt;UserModule -->
<g id="edge27" class="edge">
<title>RouterModule.forChild(args)&#45;&gt;UserModule</title>
<path fill="none" stroke="#000000" d="M205.9168,-94C391.5953,-94 797,-94 797,-94 797,-94 797,-143.9092 797,-143.9092"/>
<polygon fill="#000000" stroke="#000000" points="793.5001,-143.9091 797,-153.9092 800.5001,-143.9092 793.5001,-143.9091"/>
</g>
<!-- AppComponent -->
<g id="node3" class="node">
<title>AppComponent</title>
<polygon fill="#ffffb3" stroke="#000000" points="1949.9399,-190 1844.0601,-190 1844.0601,-154 1949.9399,-154 1949.9399,-190"/>
<text text-anchor="middle" x="1897" y="-167.8" font-family="Times,serif" font-size="14.00" fill="#000000">AppComponent</text>
</g>
<!-- AppModule -->
<g id="node8" class="node">
<title>AppModule</title>
<polygon fill="#8dd3c7" stroke="#000000" points="1448.6571,-255 1445.6571,-259 1424.6571,-259 1421.6571,-255 1365.3429,-255 1365.3429,-219 1448.6571,-219 1448.6571,-255"/>
<text text-anchor="middle" x="1407" y="-232.8" font-family="Times,serif" font-size="14.00" fill="#000000">AppModule</text>
</g>
<!-- AppComponent&#45;&gt;AppModule -->
<g id="edge2" class="edge">
<title>AppComponent&#45;&gt;AppModule</title>
<path fill="none" stroke="#000000" d="M1897,-190.1289C1897,-210.5724 1897,-241 1897,-241 1897,-241 1458.7771,-241 1458.7771,-241"/>
<polygon fill="#000000" stroke="#000000" points="1458.7772,-237.5001 1448.7771,-241 1458.7771,-244.5001 1458.7772,-237.5001"/>
</g>
<!-- NotificationComponent -->
<g id="node4" class="node">
<title>NotificationComponent</title>
<polygon fill="#ffffb3" stroke="#000000" points="1826.4818,-190 1677.5182,-190 1677.5182,-154 1826.4818,-154 1826.4818,-190"/>
<text text-anchor="middle" x="1752" y="-167.8" font-family="Times,serif" font-size="14.00" fill="#000000">NotificationComponent</text>
</g>
<!-- NotificationComponent&#45;&gt;AppModule -->
<g id="edge3" class="edge">
<title>NotificationComponent&#45;&gt;AppModule</title>
<path fill="none" stroke="#000000" d="M1752,-190.2667C1752,-208.5552 1752,-234 1752,-234 1752,-234 1458.9589,-234 1458.9589,-234"/>
<polygon fill="#000000" stroke="#000000" points="1458.9589,-230.5001 1448.9589,-234 1458.9588,-237.5001 1458.9589,-230.5001"/>
</g>
<!-- UserComponent -->
<g id="node5" class="node">
<title>UserComponent</title>
<polygon fill="#ffffb3" stroke="#000000" points="1659.7591,-190 1552.2409,-190 1552.2409,-154 1659.7591,-154 1659.7591,-190"/>
<text text-anchor="middle" x="1606" y="-167.8" font-family="Times,serif" font-size="14.00" fill="#000000">UserComponent</text>
</g>
<!-- UserComponent&#45;&gt;AppModule -->
<g id="edge4" class="edge">
<title>UserComponent&#45;&gt;AppModule</title>
<path fill="none" stroke="#000000" d="M1606,-190.0091C1606,-206.0494 1606,-227 1606,-227 1606,-227 1458.7169,-227 1458.7169,-227"/>
<polygon fill="#000000" stroke="#000000" points="1458.717,-223.5001 1448.7169,-227 1458.7169,-230.5001 1458.717,-223.5001"/>
</g>
<!-- AdminComponent -->
<g id="node6" class="node">
<title>AdminComponent</title>
<polygon fill="#ffffb3" stroke="#000000" points="1534.2204,-190 1413.7796,-190 1413.7796,-154 1534.2204,-154 1534.2204,-190"/>
<text text-anchor="middle" x="1474" y="-167.8" font-family="Times,serif" font-size="14.00" fill="#000000">AdminComponent</text>
</g>
<!-- AdminComponent&#45;&gt;AppModule -->
<g id="edge5" class="edge">
<title>AdminComponent&#45;&gt;AppModule</title>
<path fill="none" stroke="#000000" d="M1431.3591,-190.1061C1431.3591,-190.1061 1431.3591,-208.991 1431.3591,-208.991"/>
<polygon fill="#000000" stroke="#000000" points="1427.8591,-208.9909 1431.3591,-218.991 1434.8591,-208.991 1427.8591,-208.9909"/>
</g>
<!-- MerchantComponent -->
<g id="node7" class="node">
<title>MerchantComponent</title>
<polygon fill="#ffffb3" stroke="#000000" points="2102.472,-190 1967.528,-190 1967.528,-154 2102.472,-154 2102.472,-190"/>
<text text-anchor="middle" x="2035" y="-167.8" font-family="Times,serif" font-size="14.00" fill="#000000">MerchantComponent</text>
</g>
<!-- MerchantComponent&#45;&gt;AppModule -->
<g id="edge6" class="edge">
<title>MerchantComponent&#45;&gt;AppModule</title>
<path fill="none" stroke="#000000" d="M2035,-190.0109C2035,-212.4852 2035,-248 2035,-248 2035,-248 1458.6912,-248 1458.6912,-248"/>
<polygon fill="#000000" stroke="#000000" points="1458.6912,-244.5001 1448.6912,-248 1458.6911,-251.5001 1458.6912,-244.5001"/>
</g>
<!-- AppComponent  -->
<g id="node14" class="node">
<title>AppComponent </title>
<polygon fill="#80b1d3" stroke="#000000" points="1461.439,-320 1352.561,-320 1352.561,-284 1461.439,-284 1461.439,-320"/>
<text text-anchor="middle" x="1407" y="-297.8" font-family="Times,serif" font-size="14.00" fill="#000000">AppComponent </text>
</g>
<!-- AppModule&#45;&gt;AppComponent  -->
<g id="edge12" class="edge">
<title>AppModule&#45;&gt;AppComponent </title>
<path fill="none" stroke="#000000" stroke-dasharray="1,5" d="M1407,-255.1061C1407,-255.1061 1407,-273.991 1407,-273.991"/>
<polygon fill="#000000" stroke="#000000" points="1403.5001,-273.9909 1407,-283.991 1410.5001,-273.991 1403.5001,-273.9909"/>
</g>
<!-- BrowserModule -->
<g id="node9" class="node">
<title>BrowserModule</title>
<polygon fill="#8dd3c7" stroke="#000000" points="1276.4734,-122 1273.4734,-126 1252.4734,-126 1249.4734,-122 1169.5266,-122 1169.5266,-86 1276.4734,-86 1276.4734,-122"/>
<text text-anchor="middle" x="1223" y="-99.8" font-family="Times,serif" font-size="14.00" fill="#000000">BrowserModule</text>
</g>
<!-- BrowserModule&#45;&gt;AppModule -->
<g id="edge7" class="edge">
<title>BrowserModule&#45;&gt;AppModule</title>
<path fill="none" stroke="#000000" d="M1223,-122.0307C1223,-156.4218 1223,-228 1223,-228 1223,-228 1355.2476,-228 1355.2476,-228"/>
<polygon fill="#000000" stroke="#000000" points="1355.2476,-231.5001 1365.2476,-228 1355.2475,-224.5001 1355.2476,-231.5001"/>
</g>
<!-- FormsModule -->
<g id="node10" class="node">
<title>FormsModule</title>
<polygon fill="#8dd3c7" stroke="#000000" points="1389.8288,-122 1386.8288,-126 1365.8288,-126 1362.8288,-122 1294.1712,-122 1294.1712,-86 1389.8288,-86 1389.8288,-122"/>
<text text-anchor="middle" x="1342" y="-99.8" font-family="Times,serif" font-size="14.00" fill="#000000">FormsModule</text>
</g>
<!-- FormsModule&#45;&gt;AppModule -->
<g id="edge8" class="edge">
<title>FormsModule&#45;&gt;AppModule</title>
<path fill="none" stroke="#000000" d="M1389.7115,-98C1398.944,-98 1405.8146,-98 1405.8146,-98 1405.8146,-98 1405.8146,-208.8282 1405.8146,-208.8282"/>
<polygon fill="#000000" stroke="#000000" points="1402.3147,-208.8281 1405.8146,-218.8282 1409.3147,-208.8282 1402.3147,-208.8281"/>
</g>
<!-- LayoutModule -->
<g id="node13" class="node">
<title>LayoutModule</title>
<polygon fill="#8dd3c7" stroke="#000000" points="1389.7078,-190 1386.7078,-194 1365.7078,-194 1362.7078,-190 1290.2922,-190 1290.2922,-154 1389.7078,-154 1389.7078,-190"/>
<text text-anchor="middle" x="1340" y="-167.8" font-family="Times,serif" font-size="14.00" fill="#000000">LayoutModule</text>
</g>
<!-- FormsModule&#45;&gt;LayoutModule -->
<g id="edge19" class="edge">
<title>FormsModule&#45;&gt;LayoutModule</title>
<path fill="none" stroke="#000000" d="M1303.8627,-122.2228C1303.8627,-122.2228 1303.8627,-143.7269 1303.8627,-143.7269"/>
<polygon fill="#000000" stroke="#000000" points="1300.3628,-143.7269 1303.8627,-153.7269 1307.3628,-143.727 1300.3628,-143.7269"/>
</g>
<!-- HttpModule -->
<g id="node11" class="node">
<title>HttpModule</title>
<polygon fill="#8dd3c7" stroke="#000000" points="956.4387,-122 953.4387,-126 932.4387,-126 929.4387,-122 871.5613,-122 871.5613,-86 956.4387,-86 956.4387,-122"/>
<text text-anchor="middle" x="914" y="-99.8" font-family="Times,serif" font-size="14.00" fill="#000000">HttpModule</text>
</g>
<!-- HttpModule&#45;&gt;AppModule -->
<g id="edge9" class="edge">
<title>HttpModule&#45;&gt;AppModule</title>
<path fill="none" stroke="#000000" d="M914,-122.2733C914,-160.6253 914,-246 914,-246 914,-246 1354.9671,-246 1354.9671,-246"/>
<polygon fill="#000000" stroke="#000000" points="1354.9671,-249.5001 1364.9671,-246 1354.9671,-242.5001 1354.9671,-249.5001"/>
</g>
<!-- RouterModule.forRoot(args) -->
<g id="node12" class="node">
<title>RouterModule.forRoot(args)</title>
<polygon fill="#8dd3c7" stroke="#000000" points="1151.8419,-122 1148.8419,-126 1127.8419,-126 1124.8419,-122 974.1581,-122 974.1581,-86 1151.8419,-86 1151.8419,-122"/>
<text text-anchor="middle" x="1063" y="-99.8" font-family="Times,serif" font-size="14.00" fill="#000000">RouterModule.forRoot(args)</text>
</g>
<!-- RouterModule.forRoot(args)&#45;&gt;AppModule -->
<g id="edge10" class="edge">
<title>RouterModule.forRoot(args)&#45;&gt;AppModule</title>
<path fill="none" stroke="#000000" d="M1063,-122.2142C1063,-158.6396 1063,-237 1063,-237 1063,-237 1355.1628,-237 1355.1628,-237"/>
<polygon fill="#000000" stroke="#000000" points="1355.1628,-240.5001 1365.1628,-237 1355.1627,-233.5001 1355.1628,-240.5001"/>
</g>
<!-- LayoutModule&#45;&gt;AppModule -->
<g id="edge11" class="edge">
<title>LayoutModule&#45;&gt;AppModule</title>
<path fill="none" stroke="#000000" d="M1377.3878,-190.1061C1377.3878,-190.1061 1377.3878,-208.991 1377.3878,-208.991"/>
<polygon fill="#000000" stroke="#000000" points="1373.8879,-208.9909 1377.3878,-218.991 1380.8879,-208.991 1373.8879,-208.9909"/>
</g>
<!-- HeaderComponent  -->
<g id="node23" class="node">
<title>HeaderComponent </title>
<polygon fill="#fb8072" stroke="#000000" points="2267.7436,-122 2142.2564,-122 2142.2564,-86 2267.7436,-86 2267.7436,-122"/>
<text text-anchor="middle" x="2205" y="-99.8" font-family="Times,serif" font-size="14.00" fill="#000000">HeaderComponent </text>
</g>
<!-- LayoutModule&#45;&gt;HeaderComponent  -->
<g id="edge22" class="edge">
<title>LayoutModule&#45;&gt;HeaderComponent </title>
<path fill="none" stroke="#000000" stroke-dasharray="5,2" d="M1389.711,-172C1394.5676,-172 1397.7394,-172 1397.7394,-172 1397.7394,-172 1397.7394,-110 1397.7394,-110 1397.7394,-110 2132.3273,-110 2132.3273,-110"/>
<polygon fill="#000000" stroke="#000000" points="2132.3274,-113.5001 2142.3273,-110 2132.3273,-106.5001 2132.3274,-113.5001"/>
</g>
<!-- FooterComponent  -->
<g id="node24" class="node">
<title>FooterComponent </title>
<polygon fill="#fb8072" stroke="#000000" points="2607.8814,-122 2486.1186,-122 2486.1186,-86 2607.8814,-86 2607.8814,-122"/>
<text text-anchor="middle" x="2547" y="-99.8" font-family="Times,serif" font-size="14.00" fill="#000000">FooterComponent </text>
</g>
<!-- LayoutModule&#45;&gt;FooterComponent  -->
<g id="edge23" class="edge">
<title>LayoutModule&#45;&gt;FooterComponent </title>
<path fill="none" stroke="#000000" stroke-dasharray="5,2" d="M1380.077,-153.9445C1380.077,-142.561 1380.077,-130 1380.077,-130 1380.077,-130 2547,-130 2547,-130 2547,-130 2547,-129.2058 2547,-129.2058"/>
<polygon fill="#000000" stroke="#000000" points="2550.5001,-132.0578 2547,-122.0579 2543.5001,-132.0579 2550.5001,-132.0578"/>
</g>
<!-- LoadingIndicatorComponent  -->
<g id="node25" class="node">
<title>LoadingIndicatorComponent </title>
<polygon fill="#fb8072" stroke="#000000" points="2468.0218,-122 2285.9782,-122 2285.9782,-86 2468.0218,-86 2468.0218,-122"/>
<text text-anchor="middle" x="2377" y="-99.8" font-family="Times,serif" font-size="14.00" fill="#000000">LoadingIndicatorComponent </text>
</g>
<!-- LayoutModule&#45;&gt;LoadingIndicatorComponent  -->
<g id="edge24" class="edge">
<title>LayoutModule&#45;&gt;LoadingIndicatorComponent </title>
<path fill="none" stroke="#000000" stroke-dasharray="5,2" d="M1370.5502,-153.8196C1370.5502,-140.9618 1370.5502,-126 1370.5502,-126 1370.5502,-126 2377,-126 2377,-126 2377,-126 2377,-125.6168 2377,-125.6168"/>
<polygon fill="#000000" stroke="#000000" points="2380.5003,-132.1678 2377,-122.1679 2373.5003,-132.168 2380.5003,-132.1678"/>
</g>
<!-- HeaderComponent -->
<g id="node17" class="node">
<title>HeaderComponent</title>
<polygon fill="#ffffb3" stroke="#000000" points="3253.7437,-122 3132.2563,-122 3132.2563,-86 3253.7437,-86 3253.7437,-122"/>
<text text-anchor="middle" x="3193" y="-99.8" font-family="Times,serif" font-size="14.00" fill="#000000">HeaderComponent</text>
</g>
<!-- HeaderComponent&#45;&gt;LayoutModule -->
<g id="edge15" class="edge">
<title>HeaderComponent&#45;&gt;LayoutModule</title>
<path fill="none" stroke="#000000" d="M3193,-122.1274C3193,-132.7109 3193,-144 3193,-144 3193,-144 1341.9699,-144 1341.9699,-144 1341.9699,-144 1341.9699,-144.9793 1341.9699,-144.9793"/>
<polygon fill="#000000" stroke="#000000" points="1338.47,-143.793 1341.9699,-153.793 1345.47,-143.7931 1338.47,-143.793"/>
</g>
<!-- FooterComponent -->
<g id="node18" class="node">
<title>FooterComponent</title>
<polygon fill="#ffffb3" stroke="#000000" points="3113.8809,-122 2996.1191,-122 2996.1191,-86 3113.8809,-86 3113.8809,-122"/>
<text text-anchor="middle" x="3055" y="-99.8" font-family="Times,serif" font-size="14.00" fill="#000000">FooterComponent</text>
</g>
<!-- FooterComponent&#45;&gt;LayoutModule -->
<g id="edge16" class="edge">
<title>FooterComponent&#45;&gt;LayoutModule</title>
<path fill="none" stroke="#000000" d="M3055,-122.4218C3055,-131.2791 3055,-140 3055,-140 3055,-140 1332.4431,-140 1332.4431,-140 1332.4431,-140 1332.4431,-143.7566 1332.4431,-143.7566"/>
<polygon fill="#000000" stroke="#000000" points="1328.9432,-143.7566 1332.4431,-153.7566 1335.9432,-143.7566 1328.9432,-143.7566"/>
</g>
<!-- LoadingIndicatorComponent -->
<g id="node19" class="node">
<title>LoadingIndicatorComponent</title>
<polygon fill="#ffffb3" stroke="#000000" points="3626.0224,-122 3447.9776,-122 3447.9776,-86 3626.0224,-86 3626.0224,-122"/>
<text text-anchor="middle" x="3537" y="-99.8" font-family="Times,serif" font-size="14.00" fill="#000000">LoadingIndicatorComponent</text>
</g>
<!-- LoadingIndicatorComponent&#45;&gt;LayoutModule -->
<g id="edge17" class="edge">
<title>LoadingIndicatorComponent&#45;&gt;LayoutModule</title>
<path fill="none" stroke="#000000" d="M3537,-122.037C3537,-135.2913 3537,-151 3537,-151 3537,-151 1361.0234,-151 1361.0234,-151 1361.0234,-151 1361.0234,-151.292 1361.0234,-151.292"/>
<polygon fill="#000000" stroke="#000000" points="1357.5238,-143.9198 1361.0234,-153.92 1364.5238,-143.9201 1357.5238,-143.9198"/>
</g>
<!-- UserLocationComponent -->
<g id="node20" class="node">
<title>UserLocationComponent</title>
<polygon fill="#ffffb3" stroke="#000000" points="3429.5225,-122 3272.4775,-122 3272.4775,-86 3429.5225,-86 3429.5225,-122"/>
<text text-anchor="middle" x="3351" y="-99.8" font-family="Times,serif" font-size="14.00" fill="#000000">UserLocationComponent</text>
</g>
<!-- UserLocationComponent&#45;&gt;LayoutModule -->
<g id="edge18" class="edge">
<title>UserLocationComponent&#45;&gt;LayoutModule</title>
<path fill="none" stroke="#000000" d="M3351,-122.4854C3351,-134.1399 3351,-147 3351,-147 3351,-147 1351.4966,-147 1351.4966,-147 1351.4966,-147 1351.4966,-147.6831 1351.4966,-147.6831"/>
<polygon fill="#000000" stroke="#000000" points="1347.9968,-143.8313 1351.4966,-153.8314 1354.9968,-143.8314 1347.9968,-143.8313"/>
</g>
<!-- Ng2CompleterModule -->
<g id="node21" class="node">
<title>Ng2CompleterModule</title>
<polygon fill="#8dd3c7" stroke="#000000" points="2972.2548,-122 2969.2548,-126 2948.2548,-126 2945.2548,-122 2829.7452,-122 2829.7452,-86 2972.2548,-86 2972.2548,-122"/>
<text text-anchor="middle" x="2901" y="-99.8" font-family="Times,serif" font-size="14.00" fill="#000000">Ng2CompleterModule</text>
</g>
<!-- Ng2CompleterModule&#45;&gt;LayoutModule -->
<g id="edge20" class="edge">
<title>Ng2CompleterModule&#45;&gt;LayoutModule</title>
<path fill="none" stroke="#000000" d="M2901,-122.0449C2901,-129.749 2901,-137 2901,-137 2901,-137 1322.9163,-137 1322.9163,-137 1322.9163,-137 1322.9163,-143.68 1322.9163,-143.68"/>
<polygon fill="#000000" stroke="#000000" points="1319.4164,-143.6799 1322.9163,-153.68 1326.4164,-143.68 1319.4164,-143.6799"/>
</g>
<!-- MaterializeModule.forRoot() -->
<g id="node22" class="node">
<title>MaterializeModule.forRoot()</title>
<polygon fill="#8dd3c7" stroke="#000000" points="2811.6603,-122 2808.6603,-126 2787.6603,-126 2784.6603,-122 2632.3397,-122 2632.3397,-86 2811.6603,-86 2811.6603,-122"/>
<text text-anchor="middle" x="2722" y="-99.8" font-family="Times,serif" font-size="14.00" fill="#000000">MaterializeModule.forRoot()</text>
</g>
<!-- MaterializeModule.forRoot()&#45;&gt;LayoutModule -->
<g id="edge21" class="edge">
<title>MaterializeModule.forRoot()&#45;&gt;LayoutModule</title>
<path fill="none" stroke="#000000" d="M2722,-122.2015C2722,-128.028 2722,-133 2722,-133 2722,-133 1313.3895,-133 1313.3895,-133 1313.3895,-133 1313.3895,-143.8701 1313.3895,-143.8701"/>
<polygon fill="#000000" stroke="#000000" points="1309.8896,-143.8701 1313.3895,-153.8701 1316.8896,-143.8701 1309.8896,-143.8701"/>
</g>
</g>
</svg>
