<?xml version="1.0" encoding="UTF-8" standalone="no"?>
<!DOCTYPE svg PUBLIC "-//W3C//DTD SVG 1.1//EN"
 "http://www.w3.org/Graphics/SVG/1.1/DTD/svg11.dtd">
<!-- Generated by graphviz version 2.40.1 (20161225.0304)
 -->
<!-- Title: dependencies Pages: 1 -->
<svg width="1164pt" height="284pt"
 viewBox="0.00 0.00 1164.00 284.00" xmlns="http://www.w3.org/2000/svg" xmlns:xlink="http://www.w3.org/1999/xlink">
<g id="graph0" class="graph" transform="scale(1 1) rotate(0) translate(4 280)">
<title>dependencies</title>
<polygon fill="#ffffff" stroke="transparent" points="-4,4 -4,-280 1160,-280 1160,4 -4,4"/>
<text text-anchor="start" x="557.0091" y="-42.4" font-family="sans-serif" font-weight="bold" font-size="14.00" fill="#000000">Legend</text>
<polygon fill="#ffffb3" stroke="transparent" points="344,-10 344,-30 364,-30 364,-10 344,-10"/>
<text text-anchor="start" x="367.629" y="-15.4" font-family="sans-serif" font-size="14.00" fill="#000000"> &#160;Declarations</text>
<polygon fill="#8dd3c7" stroke="transparent" points="457,-10 457,-30 477,-30 477,-10 457,-10"/>
<text text-anchor="start" x="480.7251" y="-15.4" font-family="sans-serif" font-size="14.00" fill="#000000"> &#160;Module</text>
<polygon fill="#80b1d3" stroke="transparent" points="543,-10 543,-30 563,-30 563,-10 543,-10"/>
<text text-anchor="start" x="566.7812" y="-15.4" font-family="sans-serif" font-size="14.00" fill="#000000"> &#160;Bootstrap</text>
<polygon fill="#fdb462" stroke="transparent" points="640,-10 640,-30 660,-30 660,-10 640,-10"/>
<text text-anchor="start" x="663.6732" y="-15.4" font-family="sans-serif" font-size="14.00" fill="#000000"> &#160;Providers</text>
<polygon fill="#fb8072" stroke="transparent" points="736,-10 736,-30 756,-30 756,-10 736,-10"/>
<text text-anchor="start" x="759.7258" y="-15.4" font-family="sans-serif" font-size="14.00" fill="#000000"> &#160;Exports</text>
<g id="clust1" class="cluster">
<title>cluster_LayoutModule</title>
<polygon fill="none" stroke="#000000" stroke-dasharray="1,5" points="8,-70 8,-268 1148,-268 1148,-70 8,-70"/>
</g>
<g id="clust2" class="cluster">
<title>cluster_LayoutModule_declarations</title>
<polygon fill="none" stroke="#000000" points="494,-78 494,-130 1140,-130 1140,-78 494,-78"/>
</g>
<g id="clust7" class="cluster">
<title>cluster_LayoutModule_imports</title>
<polygon fill="none" stroke="#000000" points="16,-78 16,-130 486,-130 486,-78 16,-78"/>
</g>
<g id="clust8" class="cluster">
<title>cluster_LayoutModule_exports</title>
<polygon fill="none" stroke="#000000" points="312,-208 312,-260 793,-260 793,-208 312,-208"/>
</g>
<!-- HeaderComponent -->
<g id="node1" class="node">
<title>HeaderComponent</title>
<polygon fill="#ffffb3" stroke="#000000" points="1131.7437,-122 1010.2563,-122 1010.2563,-86 1131.7437,-86 1131.7437,-122"/>
<text text-anchor="middle" x="1071" y="-99.8" font-family="Times,serif" font-size="14.00" fill="#000000">HeaderComponent</text>
</g>
<!-- LayoutModule -->
<g id="node5" class="node">
<title>LayoutModule</title>
<polygon fill="#8dd3c7" stroke="#000000" points="630.7078,-187 627.7078,-191 606.7078,-191 603.7078,-187 531.2922,-187 531.2922,-151 630.7078,-151 630.7078,-187"/>
<text text-anchor="middle" x="581" y="-164.8" font-family="Times,serif" font-size="14.00" fill="#000000">LayoutModule</text>
</g>
<!-- HeaderComponent&#45;&gt;LayoutModule -->
<g id="edge1" class="edge">
<title>HeaderComponent&#45;&gt;LayoutModule</title>
<path fill="none" stroke="#000000" d="M1071,-122.1289C1071,-142.5724 1071,-173 1071,-173 1071,-173 640.6804,-173 640.6804,-173"/>
<polygon fill="#000000" stroke="#000000" points="640.6804,-169.5001 630.6804,-173 640.6803,-176.5001 640.6804,-169.5001"/>
</g>
<!-- FooterComponent -->
<g id="node2" class="node">
<title>FooterComponent</title>
<polygon fill="#ffffb3" stroke="#000000" points="991.8809,-122 874.1191,-122 874.1191,-86 991.8809,-86 991.8809,-122"/>
<text text-anchor="middle" x="933" y="-99.8" font-family="Times,serif" font-size="14.00" fill="#000000">FooterComponent</text>
</g>
<!-- FooterComponent&#45;&gt;LayoutModule -->
<g id="edge2" class="edge">
<title>FooterComponent&#45;&gt;LayoutModule</title>
<path fill="none" stroke="#000000" d="M933,-122.2667C933,-140.5552 933,-166 933,-166 933,-166 640.6864,-166 640.6864,-166"/>
<polygon fill="#000000" stroke="#000000" points="640.6865,-162.5001 630.6864,-166 640.6864,-169.5001 640.6865,-162.5001"/>
</g>
<!-- LoadingIndicatorComponent -->
<g id="node3" class="node">
<title>LoadingIndicatorComponent</title>
<polygon fill="#ffffb3" stroke="#000000" points="856.0224,-122 677.9776,-122 677.9776,-86 856.0224,-86 856.0224,-122"/>
<text text-anchor="middle" x="767" y="-99.8" font-family="Times,serif" font-size="14.00" fill="#000000">LoadingIndicatorComponent</text>
</g>
<!-- LoadingIndicatorComponent&#45;&gt;LayoutModule -->
<g id="edge3" class="edge">
<title>LoadingIndicatorComponent&#45;&gt;LayoutModule</title>
<path fill="none" stroke="#000000" d="M731.1804,-122.0091C731.1804,-138.0494 731.1804,-159 731.1804,-159 731.1804,-159 641.0079,-159 641.0079,-159"/>
<polygon fill="#000000" stroke="#000000" points="641.0079,-155.5001 631.0079,-159 641.0079,-162.5001 641.0079,-155.5001"/>
</g>
<!-- UserLocationComponent -->
<g id="node4" class="node">
<title>UserLocationComponent</title>
<polygon fill="#ffffb3" stroke="#000000" points="659.5225,-122 502.4775,-122 502.4775,-86 659.5225,-86 659.5225,-122"/>
<text text-anchor="middle" x="581" y="-99.8" font-family="Times,serif" font-size="14.00" fill="#000000">UserLocationComponent</text>
</g>
<!-- UserLocationComponent&#45;&gt;LayoutModule -->
<g id="edge4" class="edge">
<title>UserLocationComponent&#45;&gt;LayoutModule</title>
<path fill="none" stroke="#000000" d="M581,-122.1061C581,-122.1061 581,-140.991 581,-140.991"/>
<polygon fill="#000000" stroke="#000000" points="577.5001,-140.9909 581,-150.991 584.5001,-140.991 577.5001,-140.9909"/>
</g>
<!-- HeaderComponent  -->
<g id="node9" class="node">
<title>HeaderComponent </title>
<polygon fill="#fb8072" stroke="#000000" points="784.7436,-252 659.2564,-252 659.2564,-216 784.7436,-216 784.7436,-252"/>
<text text-anchor="middle" x="722" y="-229.8" font-family="Times,serif" font-size="14.00" fill="#000000">HeaderComponent </text>
</g>
<!-- LayoutModule&#45;&gt;HeaderComponent  -->
<g id="edge8" class="edge">
<title>LayoutModule&#45;&gt;HeaderComponent </title>
<path fill="none" stroke="#000000" stroke-dasharray="5,2" d="M630.7719,-180C650.5773,-180 668.75,-180 668.75,-180 668.75,-180 668.75,-205.7181 668.75,-205.7181"/>
<polygon fill="#000000" stroke="#000000" points="665.2501,-205.718 668.75,-215.7181 672.2501,-205.7181 665.2501,-205.718"/>
</g>
<!-- FooterComponent  -->
<g id="node10" class="node">
<title>FooterComponent </title>
<polygon fill="#fb8072" stroke="#000000" points="641.8814,-252 520.1186,-252 520.1186,-216 641.8814,-216 641.8814,-252"/>
<text text-anchor="middle" x="581" y="-229.8" font-family="Times,serif" font-size="14.00" fill="#000000">FooterComponent </text>
</g>
<!-- LayoutModule&#45;&gt;FooterComponent  -->
<g id="edge9" class="edge">
<title>LayoutModule&#45;&gt;FooterComponent </title>
<path fill="none" stroke="#000000" stroke-dasharray="5,2" d="M581,-187.1061C581,-187.1061 581,-205.991 581,-205.991"/>
<polygon fill="#000000" stroke="#000000" points="577.5001,-205.9909 581,-215.991 584.5001,-205.991 577.5001,-205.9909"/>
</g>
<!-- LoadingIndicatorComponent  -->
<g id="node11" class="node">
<title>LoadingIndicatorComponent </title>
<polygon fill="#fb8072" stroke="#000000" points="502.0218,-252 319.9782,-252 319.9782,-216 502.0218,-216 502.0218,-252"/>
<text text-anchor="middle" x="411" y="-229.8" font-family="Times,serif" font-size="14.00" fill="#000000">LoadingIndicatorComponent </text>
</g>
<!-- LayoutModule&#45;&gt;LoadingIndicatorComponent  -->
<g id="edge10" class="edge">
<title>LayoutModule&#45;&gt;LoadingIndicatorComponent </title>
<path fill="none" stroke="#000000" stroke-dasharray="5,2" d="M531.1511,-180C509.8683,-180 489.8375,-180 489.8375,-180 489.8375,-180 489.8375,-205.7181 489.8375,-205.7181"/>
<polygon fill="#000000" stroke="#000000" points="486.3376,-205.718 489.8375,-215.7181 493.3376,-205.7181 486.3376,-205.718"/>
</g>
<!-- FormsModule -->
<g id="node6" class="node">
<title>FormsModule</title>
<polygon fill="#8dd3c7" stroke="#000000" points="477.8288,-122 474.8288,-126 453.8288,-126 450.8288,-122 382.1712,-122 382.1712,-86 477.8288,-86 477.8288,-122"/>
<text text-anchor="middle" x="430" y="-99.8" font-family="Times,serif" font-size="14.00" fill="#000000">FormsModule</text>
</g>
<!-- FormsModule&#45;&gt;LayoutModule -->
<g id="edge5" class="edge">
<title>FormsModule&#45;&gt;LayoutModule</title>
<path fill="none" stroke="#000000" d="M430,-122.0091C430,-138.0494 430,-159 430,-159 430,-159 521.1385,-159 521.1385,-159"/>
<polygon fill="#000000" stroke="#000000" points="521.1385,-162.5001 531.1385,-159 521.1384,-155.5001 521.1385,-162.5001"/>
</g>
<!-- Ng2CompleterModule -->
<g id="node7" class="node">
<title>Ng2CompleterModule</title>
<polygon fill="#8dd3c7" stroke="#000000" points="364.2548,-122 361.2548,-126 340.2548,-126 337.2548,-122 221.7452,-122 221.7452,-86 364.2548,-86 364.2548,-122"/>
<text text-anchor="middle" x="293" y="-99.8" font-family="Times,serif" font-size="14.00" fill="#000000">Ng2CompleterModule</text>
</g>
<!-- Ng2CompleterModule&#45;&gt;LayoutModule -->
<g id="edge6" class="edge">
<title>Ng2CompleterModule&#45;&gt;LayoutModule</title>
<path fill="none" stroke="#000000" d="M342.1832,-122.2667C342.1832,-140.5552 342.1832,-166 342.1832,-166 342.1832,-166 521.2269,-166 521.2269,-166"/>
<polygon fill="#000000" stroke="#000000" points="521.2269,-169.5001 531.2269,-166 521.2268,-162.5001 521.2269,-169.5001"/>
</g>
<!-- MaterializeModule.forRoot() -->
<g id="node8" class="node">
<title>MaterializeModule.forRoot()</title>
<polygon fill="#8dd3c7" stroke="#000000" points="203.6603,-122 200.6603,-126 179.6603,-126 176.6603,-122 24.3397,-122 24.3397,-86 203.6603,-86 203.6603,-122"/>
<text text-anchor="middle" x="114" y="-99.8" font-family="Times,serif" font-size="14.00" fill="#000000">MaterializeModule.forRoot()</text>
</g>
<!-- MaterializeModule.forRoot()&#45;&gt;LayoutModule -->
<g id="edge7" class="edge">
<title>MaterializeModule.forRoot()&#45;&gt;LayoutModule</title>
<path fill="none" stroke="#000000" d="M114,-122.1289C114,-142.5724 114,-173 114,-173 114,-173 521.0228,-173 521.0228,-173"/>
<polygon fill="#000000" stroke="#000000" points="521.0229,-176.5001 531.0228,-173 521.0228,-169.5001 521.0229,-176.5001"/>
</g>
</g>
</svg>
