<?xml version="1.0" encoding="UTF-8" standalone="no"?>
<!DOCTYPE svg PUBLIC "-//W3C//DTD SVG 1.1//EN"
 "http://www.w3.org/Graphics/SVG/1.1/DTD/svg11.dtd">
<!-- Generated by graphviz version 2.40.1 (20161225.0304)
 -->
<!-- Title: dependencies Pages: 1 -->
<svg width="1404pt" height="284pt"
 viewBox="0.00 0.00 1404.00 284.00" xmlns="http://www.w3.org/2000/svg" xmlns:xlink="http://www.w3.org/1999/xlink">
<g id="graph0" class="graph" transform="scale(1 1) rotate(0) translate(4 280)">
<title>dependencies</title>
<polygon fill="#ffffff" stroke="transparent" points="-4,4 -4,-280 1400,-280 1400,4 -4,4"/>
<text text-anchor="start" x="677.0091" y="-42.4" font-family="sans-serif" font-weight="bold" font-size="14.00" fill="#000000">Legend</text>
<polygon fill="#ffffb3" stroke="transparent" points="464,-10 464,-30 484,-30 484,-10 464,-10"/>
<text text-anchor="start" x="487.629" y="-15.4" font-family="sans-serif" font-size="14.00" fill="#000000"> &#160;Declarations</text>
<polygon fill="#8dd3c7" stroke="transparent" points="577,-10 577,-30 597,-30 597,-10 577,-10"/>
<text text-anchor="start" x="600.7251" y="-15.4" font-family="sans-serif" font-size="14.00" fill="#000000"> &#160;Module</text>
<polygon fill="#80b1d3" stroke="transparent" points="663,-10 663,-30 683,-30 683,-10 663,-10"/>
<text text-anchor="start" x="686.7812" y="-15.4" font-family="sans-serif" font-size="14.00" fill="#000000"> &#160;Bootstrap</text>
<polygon fill="#fdb462" stroke="transparent" points="760,-10 760,-30 780,-30 780,-10 760,-10"/>
<text text-anchor="start" x="783.6732" y="-15.4" font-family="sans-serif" font-size="14.00" fill="#000000"> &#160;Providers</text>
<polygon fill="#fb8072" stroke="transparent" points="856,-10 856,-30 876,-30 876,-10 856,-10"/>
<text text-anchor="start" x="879.7258" y="-15.4" font-family="sans-serif" font-size="14.00" fill="#000000"> &#160;Exports</text>
<g id="clust1" class="cluster">
<title>cluster_AppModule</title>
<polygon fill="none" stroke="#000000" stroke-dasharray="1,5" points="8,-70 8,-268 1388,-268 1388,-70 8,-70"/>
</g>
<g id="clust2" class="cluster">
<title>cluster_AppModule_declarations</title>
<polygon fill="none" stroke="#000000" points="675,-78 675,-130 1380,-130 1380,-78 675,-78"/>
</g>
<g id="clust8" class="cluster">
<title>cluster_AppModule_imports</title>
<polygon fill="none" stroke="#000000" points="16,-78 16,-130 667,-130 667,-78 16,-78"/>
</g>
<g id="clust10" class="cluster">
<title>cluster_AppModule_bootstrap</title>
<polygon fill="none" stroke="#000000" points="616,-208 616,-260 740,-260 740,-208 616,-208"/>
</g>
<!-- AppComponent -->
<g id="node1" class="node">
<title>AppComponent</title>
<polygon fill="#ffffb3" stroke="#000000" points="1371.9399,-122 1266.0601,-122 1266.0601,-86 1371.9399,-86 1371.9399,-122"/>
<text text-anchor="middle" x="1319" y="-99.8" font-family="Times,serif" font-size="14.00" fill="#000000">AppComponent</text>
</g>
<!-- AppModule -->
<g id="node6" class="node">
<title>AppModule</title>
<polygon fill="#8dd3c7" stroke="#000000" points="719.6571,-187 716.6571,-191 695.6571,-191 692.6571,-187 636.3429,-187 636.3429,-151 719.6571,-151 719.6571,-187"/>
<text text-anchor="middle" x="678" y="-164.8" font-family="Times,serif" font-size="14.00" fill="#000000">AppModule</text>
</g>
<!-- AppComponent&#45;&gt;AppModule -->
<g id="edge1" class="edge">
<title>AppComponent&#45;&gt;AppModule</title>
<path fill="none" stroke="#000000" d="M1319,-122.0109C1319,-144.4852 1319,-180 1319,-180 1319,-180 730.0578,-180 730.0578,-180"/>
<polygon fill="#000000" stroke="#000000" points="730.0578,-176.5001 720.0578,-180 730.0578,-183.5001 730.0578,-176.5001"/>
</g>
<!-- NotificationComponent -->
<g id="node2" class="node">
<title>NotificationComponent</title>
<polygon fill="#ffffb3" stroke="#000000" points="1248.4818,-122 1099.5182,-122 1099.5182,-86 1248.4818,-86 1248.4818,-122"/>
<text text-anchor="middle" x="1174" y="-99.8" font-family="Times,serif" font-size="14.00" fill="#000000">NotificationComponent</text>
</g>
<!-- NotificationComponent&#45;&gt;AppModule -->
<g id="edge2" class="edge">
<title>NotificationComponent&#45;&gt;AppModule</title>
<path fill="none" stroke="#000000" d="M1174,-122.1289C1174,-142.5724 1174,-173 1174,-173 1174,-173 729.8612,-173 729.8612,-173"/>
<polygon fill="#000000" stroke="#000000" points="729.8612,-169.5001 719.8612,-173 729.8612,-176.5001 729.8612,-169.5001"/>
</g>
<!-- UserComponent -->
<g id="node3" class="node">
<title>UserComponent</title>
<polygon fill="#ffffb3" stroke="#000000" points="1081.7591,-122 974.2409,-122 974.2409,-86 1081.7591,-86 1081.7591,-122"/>
<text text-anchor="middle" x="1028" y="-99.8" font-family="Times,serif" font-size="14.00" fill="#000000">UserComponent</text>
</g>
<!-- UserComponent&#45;&gt;AppModule -->
<g id="edge3" class="edge">
<title>UserComponent&#45;&gt;AppModule</title>
<path fill="none" stroke="#000000" d="M1028,-122.2667C1028,-140.5552 1028,-166 1028,-166 1028,-166 729.8705,-166 729.8705,-166"/>
<polygon fill="#000000" stroke="#000000" points="729.8706,-162.5001 719.8705,-166 729.8705,-169.5001 729.8706,-162.5001"/>
</g>
<!-- AdminComponent -->
<g id="node4" class="node">
<title>AdminComponent</title>
<polygon fill="#ffffb3" stroke="#000000" points="956.2204,-122 835.7796,-122 835.7796,-86 956.2204,-86 956.2204,-122"/>
<text text-anchor="middle" x="896" y="-99.8" font-family="Times,serif" font-size="14.00" fill="#000000">AdminComponent</text>
</g>
<!-- AdminComponent&#45;&gt;AppModule -->
<g id="edge4" class="edge">
<title>AdminComponent&#45;&gt;AppModule</title>
<path fill="none" stroke="#000000" d="M896,-122.0091C896,-138.0494 896,-159 896,-159 896,-159 729.7747,-159 729.7747,-159"/>
<polygon fill="#000000" stroke="#000000" points="729.7747,-155.5001 719.7747,-159 729.7746,-162.5001 729.7747,-155.5001"/>
</g>
<!-- MerchantComponent -->
<g id="node5" class="node">
<title>MerchantComponent</title>
<polygon fill="#ffffb3" stroke="#000000" points="817.472,-122 682.528,-122 682.528,-86 817.472,-86 817.472,-122"/>
<text text-anchor="middle" x="750" y="-99.8" font-family="Times,serif" font-size="14.00" fill="#000000">MerchantComponent</text>
</g>
<!-- MerchantComponent&#45;&gt;AppModule -->
<g id="edge5" class="edge">
<title>MerchantComponent&#45;&gt;AppModule</title>
<path fill="none" stroke="#000000" d="M701.1711,-122.1061C701.1711,-122.1061 701.1711,-140.991 701.1711,-140.991"/>
<polygon fill="#000000" stroke="#000000" points="697.6712,-140.9909 701.1711,-150.991 704.6712,-140.991 697.6712,-140.9909"/>
</g>
<!-- AppComponent  -->
<g id="node12" class="node">
<title>AppComponent </title>
<polygon fill="#80b1d3" stroke="#000000" points="732.439,-252 623.561,-252 623.561,-216 732.439,-216 732.439,-252"/>
<text text-anchor="middle" x="678" y="-229.8" font-family="Times,serif" font-size="14.00" fill="#000000">AppComponent </text>
</g>
<!-- AppModule&#45;&gt;AppComponent  -->
<g id="edge11" class="edge">
<title>AppModule&#45;&gt;AppComponent </title>
<path fill="none" stroke="#000000" stroke-dasharray="1,5" d="M678,-187.1061C678,-187.1061 678,-205.991 678,-205.991"/>
<polygon fill="#000000" stroke="#000000" points="674.5001,-205.9909 678,-215.991 681.5001,-205.991 674.5001,-205.9909"/>
</g>
<!-- BrowserModule -->
<g id="node7" class="node">
<title>BrowserModule</title>
<polygon fill="#8dd3c7" stroke="#000000" points="659.4734,-122 656.4734,-126 635.4734,-126 632.4734,-122 552.5266,-122 552.5266,-86 659.4734,-86 659.4734,-122"/>
<text text-anchor="middle" x="606" y="-99.8" font-family="Times,serif" font-size="14.00" fill="#000000">BrowserModule</text>
</g>
<!-- BrowserModule&#45;&gt;AppModule -->
<g id="edge6" class="edge">
<title>BrowserModule&#45;&gt;AppModule</title>
<path fill="none" stroke="#000000" d="M647.8293,-122.1061C647.8293,-122.1061 647.8293,-140.991 647.8293,-140.991"/>
<polygon fill="#000000" stroke="#000000" points="644.3293,-140.9909 647.8293,-150.991 651.3293,-140.991 644.3293,-140.9909"/>
</g>
<!-- FormsModule -->
<g id="node8" class="node">
<title>FormsModule</title>
<polygon fill="#8dd3c7" stroke="#000000" points="534.8288,-122 531.8288,-126 510.8288,-126 507.8288,-122 439.1712,-122 439.1712,-86 534.8288,-86 534.8288,-122"/>
<text text-anchor="middle" x="487" y="-99.8" font-family="Times,serif" font-size="14.00" fill="#000000">FormsModule</text>
</g>
<!-- FormsModule&#45;&gt;AppModule -->
<g id="edge7" class="edge">
<title>FormsModule&#45;&gt;AppModule</title>
<path fill="none" stroke="#000000" d="M487,-122.0091C487,-138.0494 487,-159 487,-159 487,-159 626.0842,-159 626.0842,-159"/>
<polygon fill="#000000" stroke="#000000" points="626.0843,-162.5001 636.0842,-159 626.0842,-155.5001 626.0843,-162.5001"/>
</g>
<!-- HttpModule -->
<g id="node9" class="node">
<title>HttpModule</title>
<polygon fill="#8dd3c7" stroke="#000000" points="421.4387,-122 418.4387,-126 397.4387,-126 394.4387,-122 336.5613,-122 336.5613,-86 421.4387,-86 421.4387,-122"/>
<text text-anchor="middle" x="379" y="-99.8" font-family="Times,serif" font-size="14.00" fill="#000000">HttpModule</text>
</g>
<!-- HttpModule&#45;&gt;AppModule -->
<g id="edge8" class="edge">
<title>HttpModule&#45;&gt;AppModule</title>
<path fill="none" stroke="#000000" d="M379,-122.2667C379,-140.5552 379,-166 379,-166 379,-166 626.1105,-166 626.1105,-166"/>
<polygon fill="#000000" stroke="#000000" points="626.1105,-169.5001 636.1105,-166 626.1105,-162.5001 626.1105,-169.5001"/>
</g>
<!-- RouterModule.forRoot(args) -->
<g id="node10" class="node">
<title>RouterModule.forRoot(args)</title>
<polygon fill="#8dd3c7" stroke="#000000" points="318.8419,-122 315.8419,-126 294.8419,-126 291.8419,-122 141.1581,-122 141.1581,-86 318.8419,-86 318.8419,-122"/>
<text text-anchor="middle" x="230" y="-99.8" font-family="Times,serif" font-size="14.00" fill="#000000">RouterModule.forRoot(args)</text>
</g>
<!-- RouterModule.forRoot(args)&#45;&gt;AppModule -->
<g id="edge9" class="edge">
<title>RouterModule.forRoot(args)&#45;&gt;AppModule</title>
<path fill="none" stroke="#000000" d="M230,-122.1289C230,-142.5724 230,-173 230,-173 230,-173 626.2555,-173 626.2555,-173"/>
<polygon fill="#000000" stroke="#000000" points="626.2556,-176.5001 636.2555,-173 626.2555,-169.5001 626.2556,-176.5001"/>
</g>
<!-- LayoutModule -->
<g id="node11" class="node">
<title>LayoutModule</title>
<polygon fill="#8dd3c7" stroke="#000000" points="123.7078,-122 120.7078,-126 99.7078,-126 96.7078,-122 24.2922,-122 24.2922,-86 123.7078,-86 123.7078,-122"/>
<text text-anchor="middle" x="74" y="-99.8" font-family="Times,serif" font-size="14.00" fill="#000000">LayoutModule</text>
</g>
<!-- LayoutModule&#45;&gt;AppModule -->
<g id="edge10" class="edge">
<title>LayoutModule&#45;&gt;AppModule</title>
<path fill="none" stroke="#000000" d="M74,-122.0109C74,-144.4852 74,-180 74,-180 74,-180 626.0074,-180 626.0074,-180"/>
<polygon fill="#000000" stroke="#000000" points="626.0075,-183.5001 636.0074,-180 626.0074,-176.5001 626.0075,-183.5001"/>
</g>
</g>
</svg>
